<svg width="186" height="46" viewBox="0 0 186 46" fill="none" xmlns="http://www.w3.org/2000/svg">
<path d="M89.8352 10.6968L85.4677 16.5728H84.9692L80.6972 10.678V20.5168H78.1676V6.98547H81.0793L85.272 12.8028L89.4648 6.98547H92.3578V20.5168H89.8352V10.6968Z" fill="white"/>
<path d="M108.876 13.8087C108.839 17.3085 106.712 20.8059 102 20.8059C97.2874 20.8059 95.1025 17.3931 95.1025 13.8275C95.1025 10.2619 97.362 6.69635 102 6.69635C106.637 6.69635 108.915 10.2713 108.876 13.8087ZM97.5926 13.8675C97.6508 16.091 98.8388 18.4672 102 18.4672C105.161 18.4672 106.349 16.0698 106.386 13.8487C106.425 11.5664 105.161 9.01386 102 9.01386C98.8388 9.01386 97.5344 11.5852 97.5926 13.8675Z" fill="white"/>
<path d="M120.503 6.94543H123.032V20.4979H121.46V20.5167L114.412 11.3736V20.4979H111.882V6.96659H113.932L120.503 15.3552V6.94543Z" fill="white"/>
<path d="M134.794 10.2336C134.328 9.4603 133.07 8.72462 131.615 8.72462C129.737 8.72462 128.836 9.51671 128.836 10.5227C128.836 11.6979 130.217 12.0293 131.824 12.2244C134.619 12.5723 137.228 13.3056 137.228 16.5351C137.228 19.5506 134.585 20.8457 131.596 20.8457C128.857 20.8457 126.749 19.9949 125.752 17.5199L127.86 16.4175C128.454 17.9077 130.005 18.5635 131.633 18.5635C133.224 18.5635 134.717 18.0041 134.717 16.5351C134.717 15.2588 133.397 14.737 131.615 14.5443C128.875 14.2152 126.346 13.4795 126.346 10.4451C126.346 7.66223 129.066 6.52228 131.538 6.50113C133.634 6.50113 135.791 7.10049 136.807 9.18765L134.794 10.2336Z" fill="white"/>
<path d="M140.159 20.4979V6.96652H142.668V20.4979H140.159Z" fill="white"/>
<path d="M156.001 20.4979H145.964V6.96652H156.001V9.43916H148.472V12.5535H155.733V14.9297H148.472V17.9853H156.001V20.4979Z" fill="white"/>
<path d="M170.676 6.98547V14.7418C170.676 18.7376 168.242 20.7918 164.871 20.7918C161.652 20.7918 158.913 18.8198 158.913 14.7418V6.98547H161.431V14.7418C161.431 17.1769 162.812 18.472 164.899 18.472C166.986 18.472 168.174 17.0617 168.174 14.7418V6.98547H170.676Z" fill="white"/>
<path d="M186 20.4979H182.993L179.084 15.9828H176.65V20.4979H174.122V6.94543C176.249 6.94543 178.376 6.96659 180.503 6.96659C183.663 6.98539 185.329 9.11252 185.329 11.4512C185.329 13.3057 184.486 15.1813 181.937 15.7031L186 20.324V20.4979ZM176.65 9.34286V13.6747H180.503C182.11 13.6747 182.799 12.5911 182.799 11.5076C182.799 10.4241 182.1 9.34286 180.503 9.34286H176.65Z" fill="white"/>
<path d="M88.1096 29.9277C87.1777 29.0683 85.9642 28.5862 84.7018 28.5739C81.8274 28.5739 80.0827 30.7786 80.0827 33.5615C80.0827 35.785 81.3662 38.086 84.7018 38.086C85.8096 38.1174 86.8892 37.7311 87.7299 37.0025V34.6051H84.2988V32.3252H90.0453V38.0273C88.7245 39.555 87.0567 40.4623 84.7018 40.4623C79.6611 40.4623 77.6113 37.1177 77.6113 33.5615C77.6113 29.7538 79.9686 26.2352 84.7018 26.2352C86.5671 26.2357 88.3568 26.979 89.6819 28.3036L88.1096 29.9277Z" fill="white"/>
<path d="M104.828 26.6419V34.3983C104.828 38.394 102.396 40.4483 99.0229 40.4483C95.8037 40.4483 93.0645 38.4763 93.0645 34.3983V26.6419H95.5755V34.3983C95.5755 36.8333 96.9544 38.1284 99.0415 38.1284C101.129 38.1284 102.319 36.7181 102.319 34.3983V26.6419H104.828Z" fill="white"/>
<path d="M108.282 40.1545V26.6232H110.79V40.1545H108.282Z" fill="white"/>
<path d="M113.912 26.6232H124.219V27.8195L117.264 37.7383H124.219V40.1545H113.737V38.6855L120.539 29.0182H113.912V26.6232Z" fill="white"/>
<path d="M46.3348 20.6836L37.3553 13.2845C37.2497 13.1971 37.1217 13.1418 36.9861 13.1251C36.8506 13.1084 36.7131 13.1309 36.5898 13.19C36.4664 13.2492 36.3623 13.3425 36.2896 13.4591C36.2168 13.5757 36.1785 13.7108 36.179 13.8486V31.6037C37.301 32.9495 38.6631 34.0712 40.1947 34.9107C40.2497 34.9414 40.3118 34.9571 40.3746 34.9562C40.4375 34.9552 40.4991 34.9378 40.5532 34.9055C40.6073 34.8732 40.6521 34.8272 40.6832 34.772C40.7143 34.7169 40.7306 34.6545 40.7305 34.5911V22.7426C40.7305 22.6737 40.7499 22.6062 40.7864 22.548C40.8229 22.4898 40.8751 22.4432 40.9368 22.4136C40.9985 22.3841 41.0672 22.3728 41.135 22.3812C41.2028 22.3895 41.2669 22.417 41.3198 22.4606L46.3465 26.6114C46.4754 26.7175 46.6366 26.7755 46.803 26.7755C46.9694 26.7755 47.1307 26.7175 47.2596 26.6114L52.2769 22.4606C52.3298 22.417 52.3939 22.3895 52.4617 22.3812C52.5295 22.3728 52.5982 22.3841 52.6599 22.4136C52.7216 22.4432 52.7738 22.4898 52.8103 22.548C52.8468 22.6062 52.8662 22.6737 52.8663 22.7426L52.8523 34.5911C52.8528 34.6542 52.8695 34.7162 52.9008 34.771C52.932 34.8257 52.9768 34.8714 53.0307 34.9036C53.0846 34.9357 53.1458 34.9533 53.2084 34.9545C53.271 34.9558 53.3329 34.9407 53.388 34.9107C54.9207 34.0719 56.2837 32.9501 57.4061 31.6037V13.8486C57.406 13.7108 57.3672 13.5758 57.2942 13.4594C57.2211 13.3429 57.1169 13.2498 56.9935 13.1907C56.8701 13.1316 56.7326 13.1091 56.597 13.1257C56.4614 13.1423 56.3333 13.1974 56.2275 13.2845L47.2479 20.6836C47.119 20.7898 46.9577 20.8478 46.7914 20.8478C46.625 20.8478 46.4637 20.7898 46.3348 20.6836Z" fill="#20ACAD"/>
<path d="M61.9443 21.6567V24.7804C61.9443 24.9736 62.0203 25.159 62.1557 25.2956C62.2912 25.4323 62.4748 25.509 62.6663 25.509H64.8745C64.3618 29.2744 62.7075 32.7876 60.1383 35.567C57.5691 38.3464 54.2109 40.2559 50.5239 41.0338C46.837 41.8117 43.0019 41.4199 39.5443 39.9121C36.0868 38.4043 33.176 35.8543 31.211 32.6117C29.2461 29.369 28.3232 25.5926 28.5688 21.7999C28.8144 18.0072 30.2166 14.384 32.583 11.427C34.9495 8.47004 38.1644 6.32398 41.787 5.28305C45.4097 4.24212 49.2627 4.35729 52.8179 5.61275C53.3467 5.80078 53.8731 6.01232 54.3926 6.25206L54.4718 6.28732C54.6752 6.38447 54.8755 6.48319 55.0727 6.58347C55.1286 6.61403 55.1845 6.63988 55.2381 6.67043C55.3849 6.74565 55.527 6.82791 55.6714 6.90548C55.7785 6.96424 55.8857 7.023 55.9928 7.08646C56.0487 7.11936 56.1046 7.15697 56.1629 7.18988C57.01 7.70418 57.8147 8.28662 58.5691 8.93154C58.9185 9.23082 59.2554 9.54421 59.58 9.8717C59.7061 9.99707 59.8738 10.0708 60.0506 10.0786C60.2274 10.0864 60.4009 10.0278 60.5373 9.91401L62.9459 7.93026C63.024 7.8656 63.0878 7.78516 63.1333 7.69412C63.1788 7.60308 63.2049 7.50345 63.2099 7.40163C63.2149 7.29981 63.1988 7.19805 63.1626 7.10289C63.1263 7.00773 63.0708 6.92127 62.9994 6.84907C61.9746 5.80323 60.853 4.85875 59.6499 4.02857C59.6126 4.00506 59.58 3.97921 59.5427 3.95335C59.3867 3.84759 59.2236 3.74417 59.0629 3.64075C55.3964 1.25904 51.1269 -0.00507882 46.7664 -4.60661e-05C34.365 0.0140564 24.1602 10.1843 23.9995 22.6979C23.9799 25.7182 24.5501 28.7127 25.6774 31.5106C26.8048 34.3085 28.4672 36.855 30.5699 39.0046C32.6725 41.1542 35.1741 42.8649 37.9319 44.0389C40.6898 45.213 43.6498 45.8274 46.6429 45.8472C49.6361 45.8669 52.6037 45.2916 55.3765 44.1541C58.1493 43.0165 60.673 41.339 62.8033 39.2173C64.9336 37.0957 66.6289 34.5714 67.7924 31.7886C68.9559 29.0058 69.5649 26.019 69.5844 22.9988C69.5844 22.4159 69.5588 21.8353 69.5146 21.2642C69.5098 21.1712 69.47 21.0837 69.4033 21.0194C69.3366 20.9552 69.2481 20.9191 69.1558 20.9187H62.6663C62.5707 20.9187 62.4761 20.9378 62.3878 20.975C62.2996 21.0122 62.2196 21.0667 62.1524 21.1354C62.0853 21.204 62.0323 21.2855 61.9965 21.375C61.9608 21.4645 61.943 21.5602 61.9443 21.6567Z" fill="white"/>
<path d="M4.71341 23.344C5.17741 23.56 5.53741 23.844 5.79341 24.196C6.05741 24.54 6.18941 24.94 6.18941 25.396C6.18941 26.292 5.8934 26.952 5.3014 27.376C4.71741 27.792 3.98541 28 3.10541 28H0.165405V19.168H2.75741C3.69341 19.168 4.42941 19.36 4.96541 19.744C5.50141 20.12 5.76941 20.668 5.76941 21.388C5.76941 21.828 5.67741 22.216 5.49341 22.552C5.30941 22.88 5.04941 23.144 4.71341 23.344ZM1.90541 22.78H2.96141C3.28141 22.78 3.52941 22.684 3.70541 22.492C3.88141 22.292 3.96941 22.048 3.96941 21.76C3.96941 21.464 3.86941 21.24 3.66941 21.088C3.46941 20.928 3.19341 20.848 2.84141 20.848H1.90541V22.78ZM3.02141 26.38C3.42941 26.38 3.75741 26.3 4.00541 26.14C4.26141 25.972 4.38941 25.724 4.38941 25.396C4.38941 24.772 3.89341 24.46 2.90141 24.46H1.90541V26.38H3.02141Z" fill="white"/>
<path d="M14.7985 19.168L11.4865 25.252V28H9.74647V25.252L6.49447 19.168H8.64247L10.6705 23.248L12.6505 19.168H14.7985Z" fill="white"/>
</svg>
